<?xml version="1.0" encoding="utf-8"?>
<!-- Generator: Adobe Illustrator 23.0.1, SVG Export Plug-In . SVG Version: 6.00 Build 0)  -->
<svg version="1.1" id="Layer_1" xmlns="http://www.w3.org/2000/svg" xmlns:xlink="http://www.w3.org/1999/xlink" x="0px" y="0px"
	 viewBox="0 0 100 100" style="enable-background:new 0 0 100 100;" xml:space="preserve">
<style type="text/css">
	.st0{fill:none;stroke:#FFFFFF;stroke-width:6;stroke-miterlimit:10;}
</style>
<path id="Icon_awesome-heart" class="st0" d="M85.6,18.2c-9.5-7.7-23.4-6.7-31.7,2.3L50.6,24l-3.3-3.4c-8.3-9-22.2-10-31.7-2.3
	C5.3,27,4.1,42.4,12.9,52.6c0.3,0.3,0.5,0.6,0.8,0.9l32.9,34c2,2.1,5.4,2.2,7.5,0.2c0.1-0.1,0.1-0.1,0.2-0.2l32.9-34
	c9.3-9.7,9-25.2-0.7-34.5C86.2,18.8,85.9,18.5,85.6,18.2L85.6,18.2z"/>
</svg>
