<?xml version="1.0" encoding="utf-8"?>
<!-- Generator: Adobe Illustrator 23.0.1, SVG Export Plug-In . SVG Version: 6.00 Build 0)  -->
<svg version="1.1" id="Layer_1" xmlns="http://www.w3.org/2000/svg" xmlns:xlink="http://www.w3.org/1999/xlink" x="0px" y="0px"
	 viewBox="0 0 100 100" style="enable-background:new 0 0 100 100;" xml:space="preserve">
<style type="text/css">
	.st0{fill:#FFFFFF;}
</style>
<path id="Icon_awesome-heart" class="st0" d="M85.5,15.4c-9.9-8-24.3-7-32.9,2.4l-3.5,3.6l-3.5-3.6c-8.6-9.4-23-10.4-32.9-2.4
	C2.2,24.5,1,40.5,10.2,51.1c0.3,0.3,0.6,0.6,0.9,0.9l34.1,35.3c2.1,2.2,5.6,2.3,7.8,0.2c0.1-0.1,0.1-0.1,0.2-0.2l34.1-35.2
	C97,42,96.6,26,86.5,16.3C86.2,16,85.9,15.7,85.5,15.4L85.5,15.4z"/>
</svg>
