<?xml version="1.0" encoding="utf-8"?>
<!-- Generator: Adobe Illustrator 23.0.1, SVG Export Plug-In . SVG Version: 6.00 Build 0)  -->
<svg version="1.1" id="Layer_1" xmlns="http://www.w3.org/2000/svg" xmlns:xlink="http://www.w3.org/1999/xlink" x="0px" y="0px"
	 viewBox="0 0 100 100" style="enable-background:new 0 0 100 100;" xml:space="preserve">
<style type="text/css">
	.st0{fill:#FFFFFF;}
</style>
<path id="Icon_awesome-heart" class="st0" d="M86.3,17.3c-9.8-7.9-24-6.9-32.5,2.4l-3.4,3.5l-3.4-3.5c-8.5-9.3-22.8-10.3-32.5-2.4
	c-10.5,9-11.6,24.9-2.6,35.3c0.3,0.3,0.6,0.6,0.8,0.9l33.7,34.9c2.1,2.2,5.5,2.3,7.7,0.2c0.1-0.1,0.1-0.1,0.2-0.2L88,53.6
	c9.6-10,9.2-25.8-0.8-35.4C87,17.9,86.7,17.6,86.3,17.3L86.3,17.3z"/>
<g>
</g>
<g>
</g>
<g>
</g>
<g>
</g>
<g>
</g>
<g>
</g>
<g>
</g>
<g>
</g>
<g>
</g>
<g>
</g>
<g>
</g>
</svg>
